<?xml version="1.0" encoding="utf-8"?>
<svg version="1.1" xmlns="http://www.w3.org/2000/svg" x="0px" y="0px"
     viewBox="0 0 47.5 63.8" style="enable-background:new 0 0 47.5 63.8;" xml:space="preserve">
<path d="M37.7,24.1c-4.6,0-8.5,3.2-9.6,7.6c-9.9-1.3-13.4-9.4-14.5-12.8c3.5-1.5,6-5,6-9c0-5.4-4.4-9.8-9.8-9.8C4.4,0,0,4.4,0,9.8
	C0,14,2.6,17.6,6.3,19v25.9C2.6,46.3,0,49.8,0,54c0,5.4,4.4,9.8,9.8,9.8c5.4,0,9.8-4.4,9.8-9.8c0-4.2-2.6-7.7-6.3-9.2V31.7
	c3.6,3.7,8.8,6.7,15.9,7.1c1.7,2.9,4.9,4.9,8.5,4.9c5.4,0,9.8-4.4,9.8-9.8C47.5,28.5,43.1,24.1,37.7,24.1z M9.8,56.8
	C8.3,56.8,7,55.6,7,54c0-1.6,1.3-2.8,2.8-2.8c1.6,0,2.8,1.3,2.8,2.8C12.6,55.6,11.4,56.8,9.8,56.8z M9.8,12.6C8.3,12.6,7,11.4,7,9.8
	C7,8.3,8.3,7,9.8,7c1.6,0,2.8,1.3,2.8,2.8C12.6,11.4,11.4,12.6,9.8,12.6z M37.7,36.8c-1.6,0-2.8-1.3-2.8-2.8c0-1.6,1.3-2.8,2.8-2.8
	s2.8,1.3,2.8,2.8C40.5,35.5,39.3,36.8,37.7,36.8z"/>
</svg>
